<svg width="50" height="50" viewBox="0 0 50 50" fill="none" xmlns="http://www.w3.org/2000/svg">
<circle cx="25" cy="25" r="25" fill="white"/>
<path d="M20 15H16.1111C15.5 15 15 15.5 15 16.1111C15 26.5444 23.4556 35 33.8889 35C34.5 35 35 34.5 35 33.8889V30.0111C35 29.4 34.5 28.9 33.8889 28.9C32.5111 28.9 31.1667 28.6778 29.9222 28.2667C29.8111 28.2222 29.6889 28.2111 29.5778 28.2111C29.2889 28.2111 29.0111 28.3222 28.7889 28.5333L26.3444 30.9778C23.2 29.3667 20.6222 26.8 19.0222 23.6556L21.4667 21.2111C21.7778 20.9 21.8667 20.4667 21.7444 20.0778C21.3333 18.8333 21.1111 17.5 21.1111 16.1111C21.1111 15.5 20.6111 15 20 15Z" fill="#1A3D8A"/>
</svg>
